<?xml version="1.0" standalone="no"?>
<!DOCTYPE svg PUBLIC "-//W3C//DTD SVG 20010904//EN"
 "http://www.w3.org/TR/2001/REC-SVG-20010904/DTD/svg10.dtd">
<svg version="1.0" xmlns="http://www.w3.org/2000/svg"
 width="130.000000pt" height="130.000000pt" viewBox="0 0 130.000000 130.000000"
 preserveAspectRatio="xMidYMid meet">

<g transform="translate(0.000000,130.000000) scale(0.100000,-0.100000)"
fill="#000000" stroke="none">
<path d="M520 1241 c-231 -133 -377 -224 -397 -246 -39 -44 -44 -91 -41 -373
3 -256 4 -268 25 -303 18 -28 72 -65 255 -175 310 -185 265 -185 578 1 305
182 280 137 280 500 0 241 -2 274 -19 310 -10 22 -27 47 -37 56 -10 9 -119 75
-241 148 -269 159 -270 159 -403 82z m398 -109 c196 -117 272 -174 272 -203 0
-6 -9 -5 -21 2 -16 8 -28 8 -46 0 -65 -30 -436 -267 -458 -293 l-25 -30 0
-275 c0 -249 2 -278 18 -296 42 -48 -63 1 -278 127 -162 96 -231 142 -248 167
-23 33 -23 35 -20 325 l3 292 24 26 c21 22 426 271 471 289 43 18 94 -4 308
-131z m-98 -571 c0 -14 5 -18 20 -14 16 4 20 0 20 -20 0 -19 -6 -26 -29 -30
-30 -6 -57 -39 -46 -57 3 -6 19 -10 34 -10 15 0 32 -5 39 -12 21 -21 14 -82
-13 -122 -14 -20 -25 -45 -25 -55 0 -11 -7 -21 -15 -25 -10 -4 -15 1 -15 15 0
16 -5 18 -25 13 -18 -5 -25 -2 -25 9 0 30 13 47 35 47 29 0 55 25 55 51 0 14
-7 19 -29 19 -62 0 -80 60 -36 124 14 20 25 45 25 55 0 10 3 21 7 24 12 13 23
7 23 -12z m218 -223 c-3 -7 -28 -27 -56 -46 -44 -28 -52 -30 -52 -15 0 11 19
29 48 45 53 30 65 33 60 16z"/>
</g>
</svg>
