<svg xmlns="http://www.w3.org/2000/svg" version="1.1" xmlns:xlink="http://www.w3.org/1999/xlink" xmlns:svgjs="http://svgjs.dev/svgjs" width="100%" height="100%" viewBox="0 0 1000 600"><rect width="1000" height="600" x="0" y="0" fill="#083a59"/><g><rect width="333.3333333333333" height="333.3333333333333" rx="13.333333333333334" ry="13.333333333333334" y="336.493958070494" fill="#f7f7f9" transform="matrix(0.39774499672559704,0,0,0.397744996725597,0,99.87039468300566)" x="314.2716979980469"/><path d="M419.3509473964713 554.6491522884435L385.2040919013488 554.6491522884435Q384.41511649711765 557.2054325981524 383.6892591252251 561.3712227324925Q382.96340175333245 565.5370128668328 382.36378044611683 567.9039390795263Q381.76415913890116 570.3024243083887 380.3124443951159 572.8902636342668Q378.86072965133064 575.5096619763142 375.92574114759094 576.7404636069145Q372.9907526438512 577.9397062213459 368.320018250803 577.9397062213459L368.320018250803 577.9397062213459L320.38187268972064 577.9397062213459L320.38187268972064 574.1841832972059Q326.2834087133694 556.5426932585981 337.54997748578967 520.0289115507824Q348.81654625820994 483.54668885913566 355.00211342738186 464.7690742384352L355.00211342738186 464.7690742384352L355.00211342738186 464.9899873516199Q358.78919536769115 454.2283628379076 366.1108871189559 431.2849580828668L366.1108871189559 431.2849580828668Q366.20556416746365 431.06404496968213 366.4264772806483 430.71689579182043L366.4264772806483 430.71689579182043Q367.4363657980642 429.04426793485044 368.320018250803 428.1606154821116L368.320018250803 428.1606154821116L428.25058995619827 428.6024417084811Q443.5567127982818 428.6024417084811 445.1031045905748 431.2849580828668L445.1031045905748 431.2849580828668L445.1031045905748 434.1568285542681Q445.3240177037595 435.16671707168393 447.5331488356066 439.2693891736857L447.5331488356066 439.2693891736857Q458.29477334931903 472.2170020543769 463.31265692022885 487.20753473476805L463.31265692022885 487.20753473476805L463.31265692022885 488.5330134138763Q463.75448314659826 491.75203306313927 465.3008749388913 495.854705165141Q466.8472667311843 499.9573772671428 469.0248388468621 504.65967067636024Q471.1708519463707 509.3935231017469 472.0545043991096 512.0444804599634L472.0545043991096 512.0444804599634L476.50432567897303 528.0133426416012Q480.3860846677901 540.8894212386529 487.92868953223956 562.4126702660776L487.92868953223956 562.4126702660776L487.92868953223956 562.1917571528929L487.92868953223956 564.40088828474Q488.2758387101012 565.9788390932022 489.6013173892095 568.6297964514188Q490.92679606831774 571.2807538096354 491.27394524617944 572.4168783917282L491.27394524617944 572.4168783917282Q491.27394524617944 575.5096619763142 489.98002558324043 576.3933144290529Q488.71766493647067 577.2769668817919 485.0568190608383 577.2769668817919L485.0568190608383 577.2769668817919L433.5525046726313 577.2769668817919Q431.69052271864587 577.0560537686072 431.1224604275995 576.9613767200995Q430.58595715272236 576.8351406554225 429.4182735544603 576.5195504937299Q428.25058995619827 576.1724013158682 427.7456456974903 575.6358980409912Q427.2407014387824 575.0678357499446 427.1460243902747 574.1841832972059L427.1460243902747 574.1841832972059L422.91711622359594 557.3001096466601Q422.4752899972265 555.2172145794899 422.0334637708571 554.9331834339666Q421.59163754448764 554.6491522884435 419.3509473964713 554.6491522884435L419.3509473964713 554.6491522884435ZM390.50600661778185 515.6106492870881L390.50600661778185 515.1688230607186L390.50600661778185 515.6106492870881ZM414.93268513277707 501.8509182372975L414.93268513277707 501.8509182372975Q414.269945793223 498.7265756365423 412.9760261302839 491.81515109547775Q411.71366548351415 484.87216753824396 410.4828638529136 479.6964888864878Q409.28362123848234 474.552369250901 407.8319064946971 470.10254797103755L407.8319064946971 470.10254797103755L407.8319064946971 464.7690742384352Q406.94825404195825 462.4652660580804 404.7075638939419 461.4553775406646L404.7075638939419 461.4553775406646L404.7075638939419 461.67629065384926Q402.05660653572534 462.2443529448957 399.4056491775088 476.5405872695634L399.4056491775088 476.5405872695634L399.4056491775088 481.8740610021657Q399.1847360643241 482.6314773902276 398.39576066009295 483.325775745951Q397.60678525586184 483.9885150855051 397.60678525586184 484.08319213401285L397.60678525586184 484.08319213401285Q393.9459393802295 500.2729674288353 391.64213119987465 510.2771755544858L391.64213119987465 510.2771755544858Q391.64213119987465 511.3817411204093 391.0740689088283 514.1589345433028Q390.50600661778185 516.9361279661964 390.50600661778185 517.3779541925658L390.50600661778185 517.3779541925658L418.025468717363 517.3779541925658Q418.025468717363 514.4745247049952 416.03725069870063 506.93191984054585L416.03725069870063 506.93191984054585L416.03725069870063 504.501875595514Q415.9110146340237 504.1862854338216 415.43762939148496 503.2395149487442Q414.93268513277707 502.2927444636669 414.93268513277707 501.8509182372975ZM641.4948622117831 434.1568285542681L641.4948622117831 434.1568285542681L641.4948622117831 570.6180144700813Q641.4948622117831 572.9533816666053 641.3055081147677 574.3419783780521Q641.1477130339215 575.7305750894989 640.3902966458595 576.9613767200995Q639.6013212416285 578.1606193345306 638.1496064978433 578.1606193345306L638.1496064978433 578.1606193345306L581.5642905063878 578.1606193345306L581.5642905063878 575.7305750894989Q581.3433773932031 575.5096619763142 579.8601036332486 574.720686572083Q578.3452708571249 573.9632701840212 578.0296806954325 573.300530844467L578.0296806954325 573.300530844467L578.0296806954325 528.4551688679705Q578.0296806954325 526.0251246229387 577.6194134852324 525.7095344612462Q577.2407052912015 525.3623852833846 574.4635118683079 525.3623852833846L574.4635118683079 525.3623852833846L566.9209070038585 525.3623852833846Q564.269949645642 525.3623852833846 560.7037808185173 525.804211509754L560.7037808185173 525.804211509754L560.7037808185173 573.7423570708365Q560.2619545921478 575.7305750894989 558.9995939453781 576.2986373805452Q557.7056742824391 576.8351406554225 555.1809529888995 576.8351406554225L555.1809529888995 576.8351406554225L550.0683923694819 576.8351406554225Q544.8611547015566 576.8351406554225 533.689262977644 577.0560537686072Q522.5489302699008 577.2769668817919 516.773630310929 577.2769668817919L516.773630310929 577.2769668817919L502.13024680839953 577.2769668817919Q497.36483536684364 577.2769668817919 497.36483536684364 571.9750521653586L497.36483536684364 571.9750521653586L498.0275747063978 432.1686105356057Q498.0275747063978 431.6005482445593 498.3747238842595 431.22184005052833Q498.69031404595194 430.8431318564974 499.7002025633677 430.1172744846048Q500.67853206461433 429.3914171127122 500.8047681292913 429.2651810480352L500.8047681292913 429.2651810480352L560.4828677053326 429.2651810480352L560.4828677053326 476.98241349593286L579.7969856009101 476.98241349593286L579.7969856009101 428.1606154821116L636.3823015923656 428.1606154821116Q639.0332589505822 428.1606154821116 640.2640605811825 429.3914171127122Q641.4948622117831 430.6222187433127 641.4948622117831 434.1568285542681Z " fill="#083a59" transform="matrix(0.39774499672559704,0,0,0.397744996725597,0,99.87039468300566)"/><path d="M730.9383759191319 574.6786205977439L730.9383759191319 574.6786205977439Q736.9153454945674 552.607700835241 744.1535104850032 529.8513487819772Q751.3916754754389 507.1224140203438 762.1392537945708 475.45544218718754Q772.8868321137026 443.7884703540313 776.8349221084857 431.64261016174714L776.8349221084857 431.64261016174714Q777.986448356964 429.695982455986 778.3702904397902 429.3121403731599L778.3702904397902 429.3121403731599L794.5739097933792 429.3121403731599Q800.2492891608799 429.3121403731599 811.3258749795771 429.1202193317468Q822.4298780899046 428.92829829033377 828.1052574574053 428.92829829033377L828.1052574574053 428.92829829033377L844.3088768109943 428.92829829033377Q845.7345759757771 428.92829829033377 846.7215984744729 428.9831328735946Q847.6812036815382 429.0379674568555 849.0246509714298 429.22988849826856Q850.3680982613213 429.42180953968165 851.1906170102344 429.80565162250775Q852.0131357591475 430.18949370533386 852.5888988833867 430.9571778709862Q853.1646620076259 431.72486203663846 853.1646620076259 432.7941364102256L853.1646620076259 432.7941364102256L897.6080917405665 573.6093462241568Q897.6080917405665 575.5559739299179 896.2098098674142 576.2688235123094Q894.8115279942617 576.9816730947007 890.9456898743699 576.9816730947007L890.9456898743699 576.9816730947007L882.0899046777383 576.9816730947007Q878.2240665578465 576.9816730947007 870.6020594845847 577.0913422612225Q863.0074697029534 577.1735941361137 859.1416315830616 577.1735941361137L859.1416315830616 577.1735941361137Q857.9901053345831 577.1735941361137 854.480692005887 577.3380978858963Q850.9438613855605 577.4751843440486 848.5311397220819 577.4203497607878Q846.1184180586033 577.3655151775267 843.1847678541465 577.1461768444833Q840.2511176496895 576.8994212198093 838.468993693711 576.0769024708961Q836.6868697377325 575.254383721983 836.1933584883847 573.9109364320916L836.1933584883847 573.9109364320916L836.1933584883847 567.5501247738298Q835.2337532813193 562.7246814468728 832.8210316178407 558.6669222855678Q830.4083099543622 554.6365804158934 827.7214153745792 554.6365804158934L827.7214153745792 554.6365804158934L794.5739097933792 554.6365804158934L789.5565454250091 575.06246268057Q788.4872710514219 577.3655151775267 778.7541325226164 577.3655151775267L778.7541325226164 577.3655151775267L771.0498735744632 577.3655151775267Q766.909862538267 577.3655151775267 758.7120923407659 577.6671053854616Q750.514322143265 577.9686955933964 746.3743111070687 577.9686955933964L746.3743111070687 577.9686955933964L743.6599992356553 577.9686955933964Q742.1246309043509 577.9686955933964 738.8071386170677 578.0509474682879Q735.4622290381542 578.1606166348095 733.6526877905453 578.1606166348095L733.6526877905453 578.1606166348095Q732.885003624893 577.3655151775267 730.9383759191319 574.6786205977439ZM805.5408264455546 482.72102446925373L797.8365674974015 516.1701202583885L800.5508793688148 520.6939733774108L806.9116910270766 520.6939733774108Q814.6159499752297 520.6939733774108 821.0315962167522 519.7892027536063Q827.4198251666444 518.8570148381714 827.4198251666444 516.8555525491494L827.4198251666444 516.8555525491494L814.9997920580558 461.33553699751184Q813.2725026853382 461.33553699751184 810.3114351892509 467.88826969718656Q807.377784984794 474.44100239686134 805.5408264455546 482.72102446925373L805.5408264455546 482.72102446925373ZM992.1703305739481 570.8127824778521L903.6673131908933 570.8127824778521Q903.393140274589 570.4289403950258 902.7625425670889 569.9628464373084Q902.1319448595888 569.4693351879605 901.3642606939366 568.1258878980691L901.3642606939366 568.1258878980691L901.3642606939366 526.4790219114333Q901.3642606939366 518.2812517139322 902.0222756930671 501.33736548632135Q902.707707983828 484.36606196708004 902.707707983828 475.59252864533977L902.707707983828 475.59252864533977Q902.707707983828 473.67331823120907 902.3238659010019 467.3947584478387Q901.9400238181757 461.14361595609876 901.9400238181757 457.46969887762003L901.9400238181757 457.46969887762003Q901.9400238181757 443.8707222289226 905.2300988138284 440.88223744120484L905.2300988138284 440.88223744120484Q925.2721389956787 441.266079524031 935.0875293993756 441.266079524031L935.0875293993756 441.266079524031L944.3545739704638 441.266079524031Q947.617231674486 441.266079524031 949.371938338834 441.458000565444L949.371938338834 441.458000565444Q949.5638593802471 441.266079524031 950.3315435458993 441.266079524031L950.3315435458993 441.266079524031Q950.5234645873124 441.266079524031 952.0039983353561 441.458000565444Q953.5119493750302 441.6499216068571 954.3618854155737 441.6499216068571L954.3618854155737 441.6499216068571Q956.7746070790524 441.95151181479196 958.4196445768787 445.707680768162L958.4196445768787 445.707680768162L958.4196445768787 447.0511280580535Q958.4196445768787 448.12040243164057 958.3373927019874 450.149282012293Q958.2277235354655 452.1781615929454 958.2277235354655 453.22001867490206L958.2277235354655 453.22001867490206L958.2277235354655 457.46969887762003Q958.1454716605742 457.9632101269679 957.0213627037263 459.1695709587072Q955.9246710385088 460.34851449881603 955.9246710385088 461.14361595609876L955.9246710385088 461.14361595609876L955.9246710385088 531.4963862798035L996.7764355678619 531.4963862798035Q998.3392211907968 531.4963862798035 999.106905356449 531.6060554463252Q999.8745895221014 531.6883073212166 1000.6422736877537 532.4559914868688Q1001.4099578534059 533.223675652521 1001.4099578534059 534.7864612754561L1001.4099578534059 534.7864612754561L1001.4099578534059 566.9743616495907Q1000.6422736877537 570.8127824778521 992.1703305739481 570.8127824778521L992.1703305739481 570.8127824778521ZM1010.1012393002549 567.5501247738298L1010.1012393002549 450.149282012293Q1010.1012393002549 444.3642334782705 1010.5673332579723 443.4046282712051L1010.5673332579723 443.4046282712051Q1011.4446865901464 442.0337636896832 1013.3638970042771 442.0337636896832L1013.3638970042771 442.0337636896832L1015.6669495012338 442.0337636896832Q1017.2297351241689 442.0337636896832 1017.805498248408 442.25310202272675L1017.805498248408 442.25310202272675L1022.8228626167781 442.25310202272675Q1032.5560011455839 442.25310202272675 1052.269033827869 441.7595907733789Q1071.9820665101543 441.266079524031 1081.797456913851 441.266079524031L1081.797456913851 441.266079524031L1107.4326245883108 441.266079524031Q1109.9550154183112 441.5676697319658 1109.9550154183112 443.7884703540313L1109.9550154183112 443.7884703540313L1109.9550154183112 475.9763707281659Q1109.8453462517894 476.55213385240506 1109.5985906271155 476.9908105184921Q1109.379252294072 477.4294871845791 1109.2147485442895 477.5665736427313Q1109.077662086137 477.7036601008835 1108.309977920485 478.2520059334922Q1107.5422937548326 478.7729344744706 1107.2407035468977 479.04710739077495L1107.2407035468977 479.04710739077495L1062.523100897653 479.04710739077495L1062.523100897653 491.0010465416461L1066.7727811003708 491.0010465416461Q1072.3659085929803 491.0010465416461 1083.8263364945035 490.61720445881997Q1095.2867643960267 490.2333623759938 1101.4556550128752 490.2333623759938L1101.4556550128752 490.2333623759938Q1104.1699668842887 490.2333623759938 1105.129572091354 491.3026367495809Q1106.0891772984194 492.371911123168 1106.0891772984194 494.2911215372987L1106.0891772984194 494.2911215372987Q1106.0891772984194 494.78463278664657 1105.8972562570063 495.936159035125Q1105.7053352155933 497.0876852836034 1105.7053352155933 497.55377924132085L1105.7053352155933 497.55377924132085L1105.7053352155933 501.2276963197996Q1105.7053352155933 501.6115384026257 1105.815004382115 502.817899234365Q1105.8972562570063 504.02426006610426 1105.8972562570063 504.9016133982783L1105.8972562570063 504.9016133982783L1105.8972562570063 507.5885079780613Q1105.8972562570063 509.699639433605 1106.0891772984194 511.8381881807792Q1106.2810983398326 513.949319636323 1106.2810983398326 515.4846879676275L1106.2810983398326 515.4846879676275L1106.2810983398326 518.0070787976279Q1105.815004382115 519.1586050461062 1105.5134141741803 519.5424471289324Q1105.2118239662454 519.9262892117586 1104.553808967115 519.9262892117586L1104.553808967115 519.9262892117586L1104.553808967115 519.7343681703454Q1100.989561055158 519.7343681703454 1092.2708623166784 520.2278794196933Q1083.5247462865686 520.6939733774108 1078.3428781684158 520.6939733774108L1078.3428781684158 520.6939733774108L1062.906942980479 520.6939733774108L1062.906942980479 533.031754611108Q1063.6746271461313 533.031754611108 1065.209995477436 533.1414237776298Q1066.7727811003708 533.223675652521 1067.5404652660231 533.223675652521L1067.5404652660231 533.223675652521Q1071.8723973436324 533.223675652521 1080.3443404574377 532.9495027362167Q1088.8437008628737 532.647912528282 1092.5998698162437 532.647912528282L1092.5998698162437 532.647912528282L1104.937651049941 532.647912528282Q1109.9550154183112 532.647912528282 1111.2984627082026 533.7994387767603L1111.2984627082026 533.7994387767603Q1111.7645566659203 534.3752019009995 1112.066146873855 534.9783823168691L1112.066146873855 534.9783823168691L1112.066146873855 565.8228354011122Q1112.066146873855 567.8242976901342 1111.2984627082026 568.8935720637214Q1110.5307785425503 569.9628464373084 1108.3922297953761 570.0450983121998L1108.3922297953761 570.0450983121998L1012.9800549214509 570.0450983121998L1010.1012393002549 567.5501247738298ZM1110.2291883346156 566.9743616495907L1110.2291883346156 566.9743616495907L1150.340685989947 504.9016133982783L1114.753041453638 448.61391368098845L1116.0142368686381 445.32383868533583Q1115.9319849937467 445.2415868104445 1115.1094662448336 444.74807556109664Q1114.2869474959205 444.25456431174877 1114.2869474959205 443.98039139544437L1114.2869474959205 443.98039139544437Q1114.2869474959205 442.7191959804442 1116.2061579100512 441.6499216068571L1116.2061579100512 441.6499216068571L1121.4154433198344 441.6499216068571Q1132.7936193464664 441.6499216068571 1138.770588921902 441.458000565444L1138.770588921902 441.458000565444L1144.5556374559242 441.458000565444Q1150.231016823425 441.458000565444 1155.7418924411431 442.0337636896832L1155.7418924411431 442.0337636896832L1159.5803132694045 442.0337636896832Q1160.4576666015787 442.0337636896832 1162.294625140818 442.143432856205Q1164.1041663884268 442.25310202272675 1164.9815197206008 442.25310202272675L1164.9815197206008 442.25310202272675Q1165.4750309699489 442.25310202272675 1166.3249670104924 442.143432856205Q1167.2023203426663 442.0337636896832 1167.6958315920144 442.0337636896832L1167.6958315920144 442.0337636896832Q1168.8473578404928 442.33535389761806 1169.5053728396233 443.24012452142256Q1170.1908051303842 444.17231243685745 1170.7665682546235 445.8173499346837Q1171.3423313788626 447.4349701408796 1171.5342524202756 447.8188122237057L1171.5342524202756 447.8188122237057Q1172.0277636696235 448.88808659729284 1173.864722208863 453.0006803418586Q1175.6742634564719 457.08585679479387 1176.5516167886458 459.38890929175074L1176.5516167886458 459.38890929175074L1176.5516167886458 459.19698825033765Q1177.237049079407 460.4581836653378 1178.3337407446245 462.8160707455555Q1179.4304324098418 465.1739578257732 1179.8416917842983 465.94164199142546L1179.8416917842983 465.94164199142546L1183.1043494883206 472.68629573251326Q1183.4059396962555 473.1798069818612 1183.4881915711467 473.5636490646873Q1183.5978607376685 473.94749114751346 1183.8720336539727 474.44100239686134L1183.8720336539727 474.44100239686134Q1184.8316388610383 472.11053260827407 1192.563315100822 455.55048846348933L1192.563315100822 455.55048846348933L1195.825972804844 448.9977557638146Q1199.1160478004965 442.44502306413983 1200.4594950903881 442.44502306413983L1200.4594950903881 442.44502306413983L1247.0963081537636 442.44502306413983Q1248.3575035687638 442.91111702185725 1249.618698983764 443.0482034800095Q1250.879894398764 443.2127072297921 1251.2637364815903 443.3497936879443Q1251.6475785644163 443.4868801460965 1251.8669168974598 444.25456431174877Q1252.113672522134 445.02224847740104 1252.113672522134 446.85920701664037L1252.113672522134 446.85920701664037L1247.8914096110464 453.22001867490206Q1241.119338578328 462.9531572037077 1229.5218242186527 481.32274259610136Q1217.8968925673469 499.69232798849504 1214.140723613977 505.4773765225175L1214.140723613977 505.4773765225175L1253.4571198120252 566.9743616495907Q1253.4571198120252 569.0854931051344 1251.9765860639818 569.8531772707868Q1250.4686350243078 570.6208614364391 1247.6994885696333 570.6208614364391L1247.6994885696333 570.6208614364391L1196.5936569704963 570.6208614364391Q1194.4825255149526 566.2889293588297 1189.1361536470172 554.7188322907847Q1183.7897817790815 543.1487352227398 1180.8012969913639 537.281434813826L1180.8012969913639 537.281434813826Q1180.0336128257115 538.8168031451305 1177.072545329624 545.3695358448052Q1174.1388951251674 551.92226854448 1172.110015544515 556.0348622890458Q1170.0811359638624 560.120038741981 1167.1474857594055 564.6987264442643Q1164.2138355549487 569.2774141465475 1161.910783057992 570.6208614364391L1161.910783057992 570.6208614364391Q1158.4287870209262 570.6208614364391 1151.8212197379905 570.5386095615477Q1145.213652455055 570.4289403950258 1141.841325584511 570.4289403950258L1141.841325584511 570.4289403950258L1138.3867468390758 570.4289403950258Q1136.1659462170103 570.4289403950258 1130.901826223966 570.2370193536128Q1125.6651235225522 570.0450983121998 1122.950811651139 570.0450983121998L1122.950811651139 570.0450983121998L1113.7111843716812 570.0450983121998Q1110.2291883346156 568.8935720637214 1110.2291883346156 566.9743616495907ZM1310.6221728614892 571.0047035192651L1257.816469181265 571.0047035192651L1257.816469181265 444.3642334782705Q1257.8987210561563 443.59654931261827 1259.3518375125695 442.96595160511816Q1260.8049539689828 442.33535389761806 1261.0791268852872 442.0337636896832L1261.0791268852872 442.0337636896832L1312.9526426500765 442.0337636896832L1312.9526426500765 567.5501247738298Q1312.4591314007284 569.5790043544823 1312.0204547346416 570.2918539368736Q1311.5817780685547 571.0047035192651 1310.6221728614892 571.0047035192651L1310.6221728614892 571.0047035192651ZM1405.8698439856319 479.4583667652316L1405.8698439856319 479.4583667652316Q1403.2652012807403 479.4583667652316 1401.620163782914 478.66326530794885Q1399.9751262850878 477.8955811422966 1399.0155210780224 476.74405489381815Q1398.055915870957 475.59252864533977 1396.8495550392176 474.44100239686134Q1395.6431942074785 473.28947614838296 1393.0385515025869 472.49437469110023Q1390.4339087976953 471.72669052544796 1386.4035669280208 471.72669052544796L1386.4035669280208 471.72669052544796Q1385.1423715130206 471.72669052544796 1383.3602475570422 471.9734461501219Q1381.5781236010637 472.22020177479584 1379.4395748538893 473.28947614838296Q1377.3284433983456 474.33133323033957 1377.3284433983456 475.9763707281659L1377.3284433983456 475.9763707281659Q1377.3284433983456 477.81332926740527 1379.110567354324 479.10194197403587Q1380.8926913103026 480.41797197229687 1383.1683265156291 480.93890051327526Q1385.416544429325 481.45982905425353 1388.2679427588905 482.2000959282754Q1391.119341088456 482.91294551066676 1392.2708673369345 483.488708634906L1392.2708673369345 483.488708634906L1406.4456071098712 486.97070467197165Q1412.6967496016111 488.69799404468927 1417.7141139699813 490.61720445881997Q1422.7314783383515 492.5638321645811 1428.3794404142218 495.8813244518641Q1433.9999851984617 499.1988167391471 1437.7561541518319 503.256575900452Q1441.5123231052019 507.3143350617569 1444.034713935202 513.4283910953446Q1446.529687473572 519.5424471289324 1446.529687473572 526.8628639942594L1446.529687473572 526.8628639942594Q1446.529687473572 535.7460664825214 1444.2266349766153 542.6826412650223L1444.2266349766153 542.6826412650223L1444.2266349766153 542.4907202236093Q1442.1977553959628 548.6596108404578 1438.523838317484 553.5124714590454Q1434.8773385306356 558.3927493692635 1429.8599741622654 561.6279897816552Q1424.8426097938952 564.8358129024165 1419.7429935506336 567.0291962328515Q1414.6433773073722 569.1951622716563 1407.9261408579148 570.4837749782869Q1401.2363217000877 571.7998049765479 1395.9722017070437 572.4029853924176Q1390.73549900563 573.0335830999175 1383.8811760980204 573.5270943492656L1383.8811760980204 573.5270943492656Q1353.530234263125 571.9917260179609 1343.2213326100803 563.8762076953511L1343.2213326100803 563.8762076953511L1343.2213326100803 562.7246814468728Q1334.44779928834 556.1719487471979 1330.252953668883 548.4676897990448Q1326.058108049426 540.7360135592612 1325.2904238837737 531.1125441969773L1325.2904238837737 531.1125441969773Q1325.2904238837737 528.8094917000205 1327.4015553393174 528.8094917000205L1327.4015553393174 528.8094917000205Q1327.9773184635567 528.8094917000205 1329.128844712035 528.8917435749119Q1330.2803709605134 529.0014127414336 1330.8835513763831 529.0014127414336L1330.8835513763831 529.0014127414336L1340.69894178008 529.0014127414336Q1342.0423890699715 528.8094917000205 1344.5647798999719 528.8094917000205L1344.5647798999719 528.8094917000205L1347.0597534383417 528.8094917000205Q1347.8274376039942 528.8094917000205 1348.4032007282333 529.0014127414336L1348.4032007282333 529.0014127414336Q1353.9963282208425 528.8094917000205 1367.4856357030183 528.8094917000205L1367.4856357030183 528.8094917000205L1371.9272369471494 528.8094917000205Q1373.84644736128 528.8094917000205 1374.915721734867 529.9610179484989Q1375.9849961084542 531.1125441969773 1376.6155938159543 532.7849989864341Q1377.2461915234544 534.4848710675212 1378.041292980737 536.1847431486084Q1378.8638117296503 537.8571979380652 1381.0023604768244 539.0087241865435Q1383.113491932368 540.1602504350219 1386.5954879694339 540.1602504350219L1386.5954879694339 540.1602504350219Q1390.3516569228038 540.1602504350219 1393.367559002152 538.1862054376304Q1396.4108783731306 536.2121604402389 1396.4108783731306 532.4559914868688L1396.4108783731306 532.4559914868688Q1396.4108783731306 530.7287021141512 1394.7658408753043 529.1933337828466Q1393.1482206691087 527.6305481599117 1389.858145673456 526.396770036542Q1386.5954879694339 525.1355746215418 1384.0182625561727 524.3678904558894Q1381.4684544345419 523.6002062902372 1377.1365223569326 522.5309319166502Q1372.8045902793233 521.4616575430631 1371.5433948643233 521.0778154602369L1371.5433948643233 521.0778154602369L1365.7583463303006 521.0778154602369Q1344.8389528162763 514.9089248433883 1335.6541601200793 505.42254193925663Q1326.441950132252 495.936159035125 1326.441950132252 481.3775771793622L1326.441950132252 481.3775771793622Q1326.441950132252 471.72669052544796 1330.06103262747 464.0224315772948Q1333.6526978310574 456.3181726291416 1339.6022501148625 451.4104774272932Q1345.5243851070372 446.47536493381426 1353.530234263125 443.15787264653125Q1361.508666127583 439.8403803592482 1369.8161054916056 438.44209848609586Q1378.096127563998 437.0438166129435 1386.97933005226 437.0438166129435L1386.97933005226 437.0438166129435Q1402.689438156501 437.0438166129435 1416.1239110554159 442.2805193143572Q1429.585801245961 447.5446393074014 1436.5223760284618 455.9343305463155L1436.5223760284618 455.9343305463155Q1439.0173495668319 458.4293040846854 1440.5527178981363 462.29514220457713Q1442.1155035210713 466.13356303283854 1442.5267628955282 468.4091982381649Q1442.965439561615 470.6848334434913 1443.6508718523758 475.9763707281659L1443.6508718523758 475.9763707281659L1440.9365599809623 479.8422088480577L1424.568436877591 479.8422088480577Q1421.8541250061774 479.8422088480577 1415.6029825144376 479.65028780664466Q1409.3244227310672 479.4583667652316 1405.8698439856319 479.4583667652316ZM1554.6909029556512 577.1735941361137L1543.3127269290192 577.1735941361137Q1540.6258323492364 577.1735941361137 1537.0341671456488 577.3380978858963Q1533.4699192336918 577.4751843440486 1531.5507088195611 577.55743621894Q1529.6314984054304 577.6671053854616 1527.1639421586913 577.5300189273094Q1524.6963859119517 577.3655151775267 1523.4626077885819 576.8445866365485Q1522.201412373582 576.3236580955702 1520.8031305004295 575.254383721983Q1519.404848627277 574.185109348396 1518.7742509197772 572.375568100787Q1518.1436532122768 570.5386095615477 1517.7323938378202 567.8242976901342Q1517.2937171717333 565.1374031103513 1517.2937171717333 561.3812341569812L1517.2937171717333 561.3812341569812Q1517.2937171717333 540.5440925178482 1518.0614013373854 504.5451886070826Q1518.829085503038 468.5462846963171 1518.829085503038 451.6846503435975L1518.829085503038 451.6846503435975Q1518.829085503038 430.8749259960949 1520.9402169585817 429.695982455986L1520.9402169585817 429.695982455986L1556.8020344111949 429.695982455986Q1566.3432518985874 429.695982455986 1571.0316087673925 430.82009141283396Q1575.6925483445668 431.91678307805154 1577.2279166758715 434.13758370011703Q1578.7907022988063 436.35838432218253 1578.7907022988063 440.88223744120484L1578.7907022988063 440.88223744120484Q1578.7907022988063 442.25310202272675 1578.5987812573933 446.146357434249Q1578.4068602159803 450.0396128457713 1578.4068602159803 452.6442555506629L1578.4068602159803 452.6442555506629L1578.4068602159803 457.08585679479387Q1578.4068602159803 460.15659345740295 1578.1052700080454 466.32548407425156Q1577.8310970917412 472.49437469110023 1577.8310970917412 475.59252864533977L1577.8310970917412 475.59252864533977L1577.8310970917412 477.5117390594704Q1578.023018133154 478.08750218370966 1578.023018133154 479.04710739077495L1578.023018133154 479.04710739077495L1581.8614389614156 479.04710739077495Q1583.5064764592419 479.04710739077495 1586.8788033297858 479.1567765572967Q1590.2511302003297 479.2664457238185 1591.896167698156 479.2664457238185L1591.896167698156 479.2664457238185Q1596.3377689422869 479.2664457238185 1598.4489003978308 478.66326530794885L1598.4489003978308 478.66326530794885L1598.4489003978308 438.579184944248Q1598.4489003978308 433.75374161729087 1598.914994355548 431.697444745008Q1599.408505604896 429.61373058109467 1600.28585893707 429.0928020401164Q1601.1357949776136 428.5444562075076 1603.466264766201 428.5444562075076L1603.466264766201 428.5444562075076Q1604.7000428895706 428.5444562075076 1607.4966066358754 428.6541253740294Q1610.29317038218 428.7363772489207 1611.5543657971803 428.7363772489207L1611.5543657971803 428.7363772489207L1618.6828616210942 428.4622043326163Q1625.92102661153 428.16061412468144 1631.5964059790306 428.16061412468144L1631.5964059790306 428.16061412468144Q1657.83475406936 428.16061412468144 1657.83475406936 433.94566265870395L1657.83475406936 433.94566265870395Q1657.83475406936 435.4810309900085 1657.9170059442515 438.38726390283495Q1658.026675110773 441.266079524031 1658.026675110773 442.82886514696594L1658.026675110773 442.82886514696594Q1658.026675110773 446.20119201750987 1657.9170059442515 452.6442555506629Q1657.83475406936 459.11473637544634 1657.83475406936 462.4870632459902L1657.83475406936 462.4870632459902Q1657.83475406936 472.49437469110023 1658.1089269856645 492.371911123168Q1658.4105171935992 512.2220302636053 1658.4105171935992 522.2293417087153L1658.4105171935992 522.2293417087153Q1658.4105171935992 523.1066950408893 1658.3008480270776 524.4227250391505Q1658.2185961521861 525.7113377457811 1658.2185961521861 526.0951798286071L1658.2185961521861 526.0951798286071L1658.2185961521861 530.7287021141512Q1658.2185961521861 536.8975927309998 1658.4105171935992 539.9683293936089L1658.4105171935992 539.9683293936089L1658.4105171935992 542.1068781407831Q1658.2185961521861 542.4907202236093 1658.2185961521861 543.2584043892615L1658.2185961521861 543.2584043892615Q1658.2185961521861 548.358020632523 1658.4105171935992 558.7765914520896Q1658.6024382350124 569.1951622716563 1658.6024382350124 574.2947785149177L1658.6024382350124 574.2947785149177Q1657.9170059442515 577.7767745519834 1640.0957663844665 577.7767745519834L1640.0957663844665 577.7767745519834L1599.984268729135 577.7767745519834L1597.1054531079392 573.7190153906786L1597.1054531079392 567.3582037324168Q1597.1054531079392 560.8877229076334 1597.1877049828306 548.2757687576318Q1597.2973741493522 535.6363973159996 1597.2973741493522 529.1933337828466L1597.2973741493522 529.1933337828466Q1597.2973741493522 526.9725331607812 1596.7490283167438 526.150014411868Q1596.228099775765 525.3274956629548 1594.5830622779388 525.3274956629548L1594.5830622779388 525.3274956629548L1591.1284835325037 525.3274956629548Q1584.575750832829 525.3274956629548 1579.1745443816324 526.0951798286071L1579.1745443816324 526.0951798286071Q1579.1745443816324 534.1010289846952 1578.9826233402193 550.1401445885015Q1578.7907022988063 566.2066774839384 1578.7907022988063 574.2947785149177L1578.7907022988063 574.2947785149177Q1577.639176050328 577.1735941361137 1554.6909029556512 577.1735941361137L1554.6909029556512 577.1735941361137ZM1676.1220875868623 567.5501247738298L1676.1220875868623 450.149282012293Q1676.1220875868623 444.3642334782705 1676.6155988362104 443.4046282712051L1676.6155988362104 443.4046282712051Q1677.4929521683844 442.0337636896832 1679.4121625825148 442.0337636896832L1679.4121625825148 442.0337636896832L1681.7152150794716 442.0337636896832Q1683.2780007024069 442.0337636896832 1683.853763826646 442.25310202272675L1683.853763826646 442.25310202272675L1688.8711281950161 442.25310202272675Q1698.6042667238219 442.25310202272675 1718.3172994061072 441.7595907733789Q1738.030332088392 441.266079524031 1747.8457224920892 441.266079524031L1747.8457224920892 441.266079524031L1773.480890166549 441.266079524031Q1776.0032809965494 441.5676697319658 1776.0032809965494 443.7884703540313L1776.0032809965494 443.7884703540313L1776.0032809965494 475.9763707281659Q1775.8936118300273 476.55213385240506 1775.6468562053535 476.9908105184921Q1775.4275178723099 477.4294871845791 1775.2630141225275 477.5665736427313Q1775.1259276643752 477.7036601008835 1774.3582434987227 478.2520059334922Q1773.5905593330706 478.7729344744706 1773.2889691251355 479.04710739077495L1773.2889691251355 479.04710739077495L1728.5713664758907 479.04710739077495L1728.5713664758907 491.0010465416461L1732.8210466786088 491.0010465416461Q1738.4141741712183 491.0010465416461 1749.8746020727415 490.61720445881997Q1761.3350299742644 490.2333623759938 1767.5039205911132 490.2333623759938L1767.5039205911132 490.2333623759938Q1770.2182324625267 490.2333623759938 1771.1778376695922 491.3026367495809Q1772.1374428766574 492.371911123168 1772.1374428766574 494.2911215372987L1772.1374428766574 494.2911215372987Q1772.1374428766574 494.78463278664657 1771.9455218352443 495.936159035125Q1771.7536007938313 497.0876852836034 1771.7536007938313 497.55377924132085L1771.7536007938313 497.55377924132085L1771.7536007938313 501.2276963197996Q1771.7536007938313 501.6115384026257 1771.8358526687223 502.817899234365Q1771.9455218352443 504.02426006610426 1771.9455218352443 504.9016133982783L1771.9455218352443 504.9016133982783L1771.9455218352443 507.5885079780613Q1771.9455218352443 509.699639433605 1772.1374428766574 511.8381881807792Q1772.3293639180704 513.949319636323 1772.3293639180704 515.4846879676275L1772.3293639180704 515.4846879676275L1772.3293639180704 518.0070787976279Q1771.8358526687223 519.1586050461062 1771.5616797524183 519.5424471289324Q1771.2600895444837 519.9262892117586 1770.6020745453527 519.9262892117586L1770.6020745453527 519.9262892117586L1770.6020745453527 519.7343681703454Q1767.0378266333958 519.7343681703454 1758.3191278949164 520.2278794196933Q1749.5730118648066 520.6939733774108 1744.3911437466538 520.6939733774108L1744.3911437466538 520.6939733774108L1728.955208558717 520.6939733774108L1728.955208558717 533.031754611108Q1729.7228927243693 533.031754611108 1731.258261055674 533.1414237776298Q1732.8210466786088 533.223675652521 1733.588730844261 533.223675652521L1733.588730844261 533.223675652521Q1737.9206629218702 533.223675652521 1746.392606035676 532.9495027362167Q1754.8919664411117 532.647912528282 1758.6481353944816 532.647912528282L1758.6481353944816 532.647912528282L1770.9859166281788 532.647912528282Q1776.0032809965494 532.647912528282 1777.3467282864406 533.7994387767603L1777.3467282864406 533.7994387767603Q1777.812822244158 534.3752019009995 1778.1144124520931 534.9783823168691L1778.1144124520931 534.9783823168691L1778.1144124520931 565.8228354011122Q1778.1144124520931 567.8242976901342 1777.3467282864406 568.8935720637214Q1776.5790441207885 569.9628464373084 1774.440495373614 570.0450983121998L1774.440495373614 570.0450983121998L1679.0283204996888 570.0450983121998L1676.1220875868623 567.5501247738298ZM1883.9451581455849 442.0337636896832L1916.9281599770022 442.0337636896832Q1918.0796862254804 442.44502306413983 1918.7102839329807 445.37867326859674Q1919.3134643488504 448.3123234730536 1919.423133515372 452.75392471718465Q1919.5053853902634 457.1681086696852 1919.423133515372 461.22586783099007Q1919.3134643488504 465.28362699229496 1919.1763778906982 469.50588990338247Q1919.039291432546 473.7555701061004 1919.039291432546 474.8248444796875L1919.039291432546 474.8248444796875Q1918.847370391133 478.66326530794885 1918.847370391133 485.6272573820802L1918.847370391133 485.6272573820802L1918.847370391133 495.82648986860323Q1918.847370391133 502.57114360969103 1919.039291432546 514.3331617191491Q1919.231212473959 526.0951798286071 1919.231212473959 531.6883073212166L1919.231212473959 531.6883073212166L1919.231212473959 566.7824406081776Q1918.847370391133 570.0450983121998 1913.8300060227623 570.0450983121998L1913.8300060227623 570.0450983121998L1859.8453588024297 570.0450983121998Q1858.118069429712 569.6612562293737 1855.4311748499292 561.9569972812204L1855.4311748499292 561.9569972812204Q1853.5942163106895 556.8573810379589 1849.289701524711 545.1776148033922Q1845.0126040303624 533.5252658604559 1841.9144500761229 524.6968979554547Q1838.8437134135136 515.8685300504536 1836.3213225835136 507.5885079780613L1836.3213225835136 507.5885079780613L1836.3213225835136 507.012744853822L1836.3213225835136 507.5885079780613Q1836.0471496672092 513.949319636323 1835.745559459274 526.5338564946942Q1835.47138654297 539.1183933530654 1835.169796335035 545.3695358448052L1835.169796335035 545.3695358448052L1835.169796335035 565.0277339438295Q1835.169796335035 567.9339668566561 1834.5117813359045 569.0306585218736Q1833.8263490451434 570.1547674787216 1830.9475334239476 570.8127824778521L1830.9475334239476 570.8127824778521L1791.2198778514423 570.8127824778521L1786.9701976487247 566.5905195667646Q1787.4637088980724 550.5788212545885 1787.765299106007 516.4717104663232Q1788.0394720223114 482.33718238642757 1788.5329832716595 465.94164199142546L1788.5329832716595 465.94164199142546L1788.5329832716595 445.1319176439228Q1789.4925884787247 441.6499216068571 1790.8360357686163 441.6499216068571L1790.8360357686163 441.6499216068571L1790.8360357686163 442.0337636896832Q1797.3887684682911 442.0337636896832 1811.4264217830757 441.6499216068571Q1825.4366578062293 441.266079524031 1832.4829017552522 441.266079524031L1832.4829017552522 441.266079524031L1848.6591038172107 441.266079524031Q1848.7687729837323 441.266079524031 1848.9606940251454 441.3757486905527L1848.9606940251454 441.3757486905527Q1850.687983397863 442.0337636896832 1850.879904439276 442.91111702185725L1850.879904439276 442.91111702185725L1850.9895736057981 443.59654931261827Q1854.444152351233 452.9458457585977 1858.00840026319 462.9531572037077Q1861.6000654667776 472.9878859404481 1866.5077606686261 487.2174602966456Q1871.4154558704743 501.41961736121266 1873.3346662846054 506.820823812409L1873.3346662846054 506.820823812409L1873.3346662846054 492.5638321645811Q1875.2812939903663 458.6212251260984 1875.2812939903663 444.3642334782705L1875.2812939903663 444.3642334782705Q1875.2812939903663 442.82886514696594 1877.39242544591 442.44502306413983Q1879.5035569014537 442.0337636896832 1883.9451581455849 442.0337636896832L1883.9451581455849 442.0337636896832ZM1938.505568490157 570.8127824778521L1938.505568490157 442.0337636896832L1956.4364772164638 442.0337636896832Q1964.7164992888563 442.0337636896832 1982.9489982230978 441.6499216068571Q2001.1540798657086 441.266079524031 2010.2292033953838 441.266079524031L2010.2292033953838 441.266079524031Q2018.0157142184282 441.266079524031 2024.815202542777 442.143432856205Q2031.6146908671255 443.020786188379 2038.2222581500612 445.32383868533583Q2044.8298254329968 447.6268911822927 2049.4907650101713 451.19113909424965Q2054.1791218789767 454.7828042978371 2057.0579375001726 460.59527012348997Q2059.964170412999 466.4351532407734 2059.964170412999 474.0571603140352L2059.964170412999 474.0571603140352Q2059.964170412999 484.55798300849307 2055.02905791952 491.9880690403419Q2050.121362717671 499.3907377805602 2039.894712939518 504.51777131545214L2039.894712939518 504.51777131545214Q2043.9524721008227 506.2450606881698 2046.9409568885405 509.0416244344745Q2049.9294416762586 511.8381881807792 2051.519644590824 513.8670677614316Q2053.1098475053896 515.8685300504536 2054.617798545063 520.6391387941499Q2056.098332293107 525.4371648294766 2056.399922501042 526.9176985775202Q2056.6740954173465 528.398232325564 2057.633700624411 534.2929500261082L2057.633700624411 534.2929500261082Q2057.9352908323463 535.6363973159996 2058.017542707237 536.3218296067606L2058.017542707237 536.3218296067606Q2058.401384790064 540.1602504350219 2061.3076177028906 550.4417347964363Q2064.1864333240865 560.6958018662203 2064.1864333240865 566.2066774839384L2064.1864333240865 566.2066774839384Q2064.1864333240865 569.6612562293737 2062.0753018685427 569.6612562293737L2062.0753018685427 569.6612562293737Q2056.2902533345205 569.6612562293737 2044.583069808323 569.7709253958953Q2032.8758862821257 569.8531772707868 2027.1730896229944 569.8531772707868L2027.1730896229944 569.8531772707868Q2024.8700371260377 569.6612562293737 2020.2365148404936 569.6612562293737L2020.2365148404936 569.6612562293737L2013.6837821408187 569.6612562293737Q2011.7645717266885 569.0854931051344 2009.9276131874487 563.684286653938Q2008.0906546482095 558.2830802027418 2007.3229704825574 551.5384264616539L2007.3229704825574 551.5384264616539L2005.2118390270136 534.3752019009995Q2004.636075902774 532.2640704454557 2004.2796511115787 531.3592998216513Q2003.9506436120134 530.4271119062164 2003.0732902798393 529.1384991995858Q2002.2233542392958 527.8224692013248 2000.7154031996217 527.3563752436073Q1999.2348694515779 526.8628639942594 1996.904399662991 526.8628639942594L1996.904399662991 526.8628639942594L1992.49021571049 526.8628639942594L1992.49021571049 565.4115760266557Q1992.49021571049 565.7131662345905 1992.49021571049 566.3437639420906Q1992.49021571049 566.9743616495907 1992.49021571049 567.2211172742645Q1992.49021571049 567.4404556073081 1992.49021571049 567.9339668566561Q1992.49021571049 568.4000608143735 1992.3805465439684 568.6468164390474Q1992.298294669077 568.8935720637214 1992.1886255025554 569.2774141465475Q1992.106373627664 569.6612562293737 1991.9418698778811 569.7983426875257Q1991.8047834197293 569.9628464373084 1991.5580277950555 570.2096020619824Q1991.3386894620114 570.4289403950258 1990.982264670816 570.5386095615477Q1990.6532571712507 570.6208614364391 1990.214580505164 570.7305306029607Q1989.7759038390766 570.8127824778521 1989.2001407148375 570.8127824778521L1989.2001407148375 570.8127824778521L1938.505568490157 570.8127824778521ZM1993.0659788347295 492.94767424740724L1993.0659788347295 492.94767424740724Q1993.2578998761426 493.13959528882026 1993.6417419589686 493.77019299632036Q1994.0255840417947 494.37337341219 1994.4094261246207 494.78463278664657Q1994.7932682074468 495.1684748694727 1995.1771102902733 495.250726744364L1995.1771102902733 495.250726744364Q1998.0833432030997 495.250726744364 2000.9621588242956 494.62012903686394Q2003.868391737122 493.98953132936384 2006.8842938164705 492.5638321645811Q2009.9276131874487 491.11071570816785 2011.8194063099493 488.1222309204501Q2013.6837821408187 485.1337461327323 2013.6837821408187 480.9937350965361L2013.6837821408187 480.9937350965361Q2013.6837821408187 470.9590063597957 1994.4094261246207 470.9590063597957L1994.4094261246207 470.9590063597957Q1992.49021571049 471.45251760914357 1992.49021571049 472.49437469110023L1992.49021571049 472.49437469110023L1992.49021571049 476.16829176957896Q1992.49021571049 478.96485551588364 1992.7643886267945 484.55798300849307Q1993.0659788347295 490.1511105011025 1993.0659788347295 492.94767424740724ZM2066.324982071261 441.6499216068571L2117.2937272122454 441.6499216068571L2132.428072192248 489.27375716892846Q2139.775906349205 469.6978109447955 2146.1367180074667 450.149282012293L2146.1367180074667 450.149282012293Q2146.3286390488793 449.3815978466407 2147.288244255945 447.24304909946653Q2148.2478494630104 445.1319176439228 2148.439770504423 443.7884703540313L2148.439770504423 443.7884703540313Q2149.207454670075 441.458000565444 2158.8583413239903 441.458000565444L2158.8583413239903 441.458000565444Q2159.51635632312 441.458000565444 2160.7227171548593 441.5676697319658Q2161.9290779865987 441.6499216068571 2162.696762152251 441.6499216068571L2162.696762152251 441.6499216068571Q2178.4068702564928 441.458000565444 2196.639369190734 441.266079524031L2196.639369190734 441.266079524031Q2198.9424216876905 441.5676697319658 2199.902026894756 446.00927097609684L2199.902026894756 446.00927097609684L2156.1440294525764 525.2178264964331L2157.7068150755113 531.6883073212166Q2157.7068150755113 537.281434813826 2157.8987361169247 548.7418627153492Q2158.0906571583373 560.2297079085029 2158.0906571583373 564.6438918610035L2158.0906571583373 564.6438918610035L2158.0906571583373 567.5501247738298Q2157.7068150755113 568.8935720637214 2156.5827061186637 569.7709253958953Q2155.486014453446 570.6208614364391 2153.5119694560544 570.8676170611129Q2151.537924458663 571.114372685787 2150.0299734189884 571.1692072690478Q2148.5494396709455 571.1966245606782 2145.7802932162704 571.114372685787Q2143.0385640532268 571.0047035192651 2142.078958846161 571.0047035192651L2142.078958846161 571.0047035192651L2105.257536186483 571.0047035192651L2102.1867995238736 566.9743616495907L2102.1867995238736 526.6709429528463L2079.8965414283275 479.1567765572967L2069.5876397752827 464.7078638680557Q2061.6914597857167 448.88808659729284 2061.6914597857167 444.3642334782705L2061.6914597857167 444.3642334782705Q2061.6914597857167 441.6499216068571 2066.324982071261 441.6499216068571L2066.324982071261 441.6499216068571Z " fill="#ffffff" transform="matrix(0.39774499672559704,0,0,0.397744996725597,0,99.87039468300566)"/></g></svg>