<?xml version="1.0" standalone="no"?>
<!DOCTYPE svg PUBLIC "-//W3C//DTD SVG 20010904//EN"
 "http://www.w3.org/TR/2001/REC-SVG-20010904/DTD/svg10.dtd">
<svg version="1.0" xmlns="http://www.w3.org/2000/svg"
 width="238.000000pt" height="238.000000pt" viewBox="0 0 238.000000 238.000000"
 preserveAspectRatio="xMidYMid meet">
<metadata>
Created by potrace 1.14, written by Peter Selinger 2001-2017
</metadata>
<g transform="translate(0.000000,238.000000) scale(0.100000,-0.100000)"
fill="#000000" stroke="none">
<path d="M1020 2319 c-114 -19 -207 -44 -229 -63 -8 -6 -17 -10 -20 -9 -13 5
-51 -10 -51 -20 0 -6 -3 -7 -7 -4 -3 4 -17 0 -29 -8 -13 -8 -45 -27 -71 -42
-72 -40 -186 -132 -237 -192 -12 -14 -31 -35 -44 -47 -12 -12 -22 -26 -22 -33
0 -6 -4 -11 -9 -11 -19 0 -97 -132 -148 -250 -91 -208 -114 -467 -62 -697 36
-165 140 -364 251 -486 24 -25 48 -52 54 -59 6 -7 35 -33 63 -58 29 -25 58
-50 64 -55 12 -11 100 -66 152 -95 29 -16 165 -67 235 -88 110 -32 326 -45
445 -27 287 43 517 169 713 388 17 20 32 41 32 46 0 5 4 11 9 13 9 3 90 128
108 168 55 119 92 226 99 290 2 25 8 67 13 95 9 51 7 277 -2 292 -3 5 -8 29
-12 53 -8 53 -55 198 -86 266 -23 48 -78 144 -89 154 -3 3 -19 23 -35 45 -71
96 -169 193 -233 230 -17 11 -32 23 -32 27 0 4 -7 8 -15 8 -8 0 -15 4 -15 8 0
23 -289 143 -375 156 -16 2 -50 8 -75 12 -87 13 -235 11 -340 -7z"/>
</g>
</svg>
