<?xml version="1.0" standalone="no"?>
<!DOCTYPE svg PUBLIC "-//W3C//DTD SVG 20010904//EN"
 "http://www.w3.org/TR/2001/REC-SVG-20010904/DTD/svg10.dtd">
<svg version="1.0" xmlns="http://www.w3.org/2000/svg"
 width="300.000000pt" height="300.000000pt" viewBox="0 0 300.000000 300.000000"
 preserveAspectRatio="xMidYMid meet">

<g transform="translate(0.000000,300.000000) scale(0.100000,-0.100000)"
fill="#000000" stroke="none">
<path d="M1295 2986 c-640 -93 -1130 -556 -1266 -1196 -19 -88 -23 -136 -22
-290 0 -272 38 -433 158 -675 76 -152 159 -266 281 -388 124 -122 228 -197
379 -272 240 -119 403 -158 670 -159 205 0 304 14 474 71 642 213 1060 820
1028 1494 -33 686 -522 1258 -1197 1399 -132 27 -374 35 -505 16z m1014 -567
c115 -49 151 -170 75 -250 -48 -51 -143 -47 -178 6 -20 30 -20 92 -1 125 35
61 5 97 -72 86 -153 -21 -234 -152 -303 -496 -43 -210 -49 -193 68 -188 69 3
108 10 136 24 58 28 63 43 37 103 -23 54 -20 71 17 113 19 23 77 33 107 20 61
-28 71 -131 20 -198 -65 -84 -176 -128 -332 -128 -57 -1 -103 -3 -103 -6 0
-18 -53 -295 -71 -371 -88 -380 -274 -664 -511 -784 -181 -90 -371 -65 -435
59 -20 39 -19 110 4 149 73 125 263 91 263 -48 0 -29 -8 -44 -40 -76 -40 -40
-44 -63 -10 -74 40 -13 110 17 171 72 108 98 175 285 254 713 20 107 51 257
70 334 l34 139 -56 51 c-129 118 -219 166 -312 166 -60 0 -109 -30 -135 -83
-33 -68 -19 -100 107 -243 37 -43 82 -106 99 -141 28 -56 30 -70 26 -130 -8
-116 -72 -205 -186 -260 -75 -35 -210 -44 -298 -18 -163 47 -254 141 -254 262
0 89 59 143 135 121 78 -22 106 -107 62 -194 -31 -61 -24 -84 35 -113 96 -46
209 -13 243 71 26 66 15 95 -76 195 -108 118 -149 200 -149 299 0 233 246 380
494 294 71 -24 120 -56 207 -135 40 -36 76 -65 79 -65 4 0 21 38 39 84 60 155
161 309 266 404 61 56 175 117 245 132 67 14 171 4 229 -21z"/>
</g>
</svg>
