<svg width="470" height="670" xmlns="http://www.w3.org/2000/svg">
 <g>
  <title>Layer 1</title>
  <ellipse fill="#f6efe7" stroke="#000" cx="158.33333" cy="330.90808" id="svg_4" rx="58" ry="55"/>
  <ellipse fill="#f6efe7" stroke="#000" cx="159.66667" cy="78" id="svg_5" rx="58" ry="55"/>
  <ellipse fill="#f6efe7" cx="324.24138" cy="457.27594" id="svg_6" rx="58" ry="55" stroke="#000"/>
  <path fill="#f6efe7" stroke="#000" d="m321.31035,245.57475c-32.0442,0 -58,-24.61326 -58,-55c0,-30.38674 25.9558,-55 58,-55c32.0442,0 58,24.61326 58,55c0,30.38674 -25.9558,55 -58,55z" id="svg_7"/>
  <line id="svg_18" y2="367.58522" x2="407.58502" y1="368.27488" x1="407.58502" stroke="#000" fill="none"/>
  <ellipse fill="#f6efe7" stroke="#000" cx="158.33333" cy="584.66667" id="svg_25" rx="58" ry="55"/>
  <line id="svg_29" y2="878.25189" x2="400.91835" y1="878.94155" x1="400.91835" stroke="#000" fill="none"/>
  <line id="svg_38" y2="549.33333" x2="1574.66667" y1="549.33333" x1="1576" stroke="#000" fill="none"/>
  <line id="svg_46" y2="245" x2="595" y1="246.33333" x1="595" stroke="#000" fill="none"/>
  <line id="svg_2" y2="226" x2="277" y1="294" x1="202" stroke="#000" fill="none"/>
  <line id="svg_3" y2="492" x2="279" y1="553" x1="206" stroke="#000" fill="none"/>
  <line id="svg_8" y2="417" x2="284" y1="363" x1="205" stroke="#000" fill="none"/>
  <line id="svg_10" y2="156" x2="274" y1="111" x1="205" stroke="#000" fill="none"/>
 </g>

</svg>