<svg id="SvgjsSvg1001" width="288" height="288" xmlns="http://www.w3.org/2000/svg" version="1.1" xmlns:xlink="http://www.w3.org/1999/xlink" xmlns:svgjs="http://svgjs.com/svgjs"><defs id="SvgjsDefs1002"></defs><g id="SvgjsG1008" transform="matrix(1,0,0,1,0,0)"><svg xmlns="http://www.w3.org/2000/svg" enable-background="new 0 0 64 64" viewBox="0 0 64 64" width="288" height="288"><circle cx="32" cy="32" r="32" fill="#52b3d9" class="color77b3d4 svgShape"></circle><path fill="#000000" d="M52,44c0,2.2-1.8,4-4,4H16c-2.2,0-4-1.8-4-4V24c0-2.2,1.8-4,4-4h32c2.2,0,4,1.8,4,4V44z" opacity=".2" class="color231f20 svgShape"></path><path fill="#ffffff" d="M52,42c0,2.2-1.8,4-4,4H16c-2.2,0-4-1.8-4-4V22c0-2.2,1.8-4,4-4h32c2.2,0,4,1.8,4,4V42z" class="colore0e0d1 svgShape"></path><path fill="#000000" d="M35.5,30.2c-1.9-2.1-5.1-2.1-7,0L13,43.2c-0.2,0.2-0.3,0.4-0.5,0.6c0.7,1.3,2,2.2,3.4,2.2h32
					c1.5,0,2.7-0.9,3.4-2.2c-0.1-0.2-0.3-0.4-0.5-0.6L35.5,30.2z" opacity=".2" class="color231f20 svgShape"></path><path fill="#ffffff" d="M35.5,32c-1.9-1.9-5.1-1.9-7,0L13,43.5c-0.2,0.2-0.3,0.3-0.5,0.5c0.7,1.2,2,1.9,3.4,1.9h32
					c1.5,0,2.7-0.8,3.4-1.9c-0.1-0.2-0.3-0.3-0.5-0.5L35.5,32z" class="colore0e0d1 svgShape"></path><path fill="#000000" d="M12.6,20.2c0.7-1.3,2-2.2,3.4-2.2h32c1.5,0,2.7,0.9,3.4,2.2c-0.1,0.2-0.3,0.4-0.5,0.6l-15.4,13
					c-1.9,2.1-5.1,2.1-7,0L12.6,20.2z" opacity=".2" class="color231f20 svgShape"></path><path fill="#ffffff" d="M28.5,32c1.9,1.9,5.1,1.9,7,0L51,20.5c0.2-0.2,0.3-0.3,0.5-0.5c-0.7-1.2-2-1.9-3.4-1.9H16
					c-1.5,0-2.7,0.8-3.4,1.9c0.1,0.2,0.3,0.3,0.5,0.5L28.5,32z" class="colorfff svgShape"></path></svg></g></svg>